<?xml version="1.0" encoding="utf-8"?>
<!-- Generator: Adobe Illustrator 27.5.0, SVG Export Plug-In . SVG Version: 6.00 Build 0)  -->
<svg version="1.1" xmlns="http://www.w3.org/2000/svg" xmlns:xlink="http://www.w3.org/1999/xlink" x="0px" y="0px"
	 viewBox="0 0 1200 1200" style="enable-background:new 0 0 1200 1200;" xml:space="preserve">
<g id="Background">
	<rect style="fill:#fff;" width="1200" height="1200"/>
</g>
<g id="Object">
	<g>
		<path style="fill:#022b3a;" d="M591.901,801.045c-0.541,1.058-0.813,2.181-0.814,3.37c-0.951,1.932-2.344,3.501-3.995,4.858
			l0.106-0.113c-1.202,1.482-2.671,2.73-3.775,4.299l-0.118,0.177c-2.727,1.893-1.773,5.912-4.506,7.8l0.184-0.168
			c-1.119,1.629-2.598,2.931-3.95,4.349l0.015-0.015c-1.309,1.236-2.52,2.562-3.632,3.977c-0.53,1.002-0.776,2.069-0.738,3.202
			c-0.859,2.039-2.266,3.635-4.005,4.962l0.133-0.141c-1.169,1.565-2.634,2.859-3.915,4.323l-0.037,0.041
			c-1.32,1.165-2.509,2.45-3.548,3.873c-0.542,1.042-0.812,2.149-0.809,3.323c-0.927,1.97-2.318,3.555-4.034,4.872l0.131-0.138
			c-1.179,1.56-2.638,2.864-3.943,4.309l-0.021,0.022c-1.325,1.194-2.524,2.505-3.612,3.918c-0.539,1.007-0.794,2.082-0.767,3.224
			c-0.869,2.031-2.273,3.627-4.02,4.944l0.125-0.189c-1.606,1.426-3.43,1.807-5.469,1.166
			c-17.914-13.611-26.336-34.472-36.295-48.722c6.813,26.259-2.669,57.729,6.884,87.095c0.079,2.057-0.531,3.882-1.816,5.482
			l0.114-0.09c-1.261,1.473-2.683,2.793-3.982,4.231l-0.024,0.025c-1.381,1.264-2.66,2.624-3.822,4.094l-0.2,0.212
			c-1.459,1.069-2.667,2.375-3.659,3.884l-0.282,0.381c-2.922,1.654-1.839,5.788-4.65,7.51l0.191-0.156
			c-1.095,1.709-2.509,3.104-4.189,4.235l0.148-0.144c-1.13,1.679-2.547,3.074-4.192,4.245l0.148-0.145
			c-1.165,1.642-2.583,3.034-4.185,4.244l0.14-0.138c-1.2,1.599-2.615,2.987-4.174,4.234l0.125-0.125
			c-1.235,1.556-2.643,2.94-4.162,4.214l0.108-0.108c-1.264,1.517-2.665,2.9-4.154,4.193l0.095-0.094
			c-1.289,1.487-2.678,2.875-4.164,4.167l0.095-0.093c-1.311,1.488-2.663,2.933-4.293,4.086l0.132-0.202
			c-1.26,1.437-2.521,1.367-3.782,0.002l0.131,0.202c-1.626-1.147-2.962-2.604-4.306-4.05l0.072,0.072
			c-1.441-1.314-2.811-2.701-4.156-4.114l0.053,0.054c-1.405-1.331-2.756-2.716-4.148-4.061l0.011,0.011
			c-1.334-1.37-2.665-2.744-4.103-4.009l-0.042-0.042c-1.275-1.396-2.623-2.717-4.046-3.961l-0.095-0.094
			c-1.219-1.422-2.553-2.728-3.987-3.932l-0.132-0.13c-1.174-1.435-2.5-2.714-3.955-3.86l-0.202-0.197
			c-1.11-1.453-2.403-2.719-3.879-3.797l-0.266-0.265c-1.051-1.471-2.323-2.716-3.815-3.737l-0.319-0.238
			c-5.025-4.507-10.574-8.372-15.679-12.782l0.118,0.193c-1.718-1.082-3.115-2.487-4.208-4.195l0.133,0.136
			c-1.709-1.096-3.11-2.502-4.217-4.201l0.139,0.141c-1.699-1.109-3.101-2.516-4.221-4.206l0.143,0.144
			c-1.691-1.118-3.086-2.534-4.24-4.195l0.145,0.149c-1.657-1.15-3.049-2.568-4.245-4.186l0.141,0.142
			c-1.616-1.189-3.012-2.6-4.228-4.192l0.134,0.136c-1.589-1.206-2.973-2.622-4.232-4.164l0.117,0.118
			c-1.536-1.24-2.901-2.655-4.224-4.113l0.077,0.077c-1.447-1.294-2.788-2.699-4.188-4.043l0.009,0.009
			c-1.33-1.362-2.639-2.745-4.113-3.959l-0.082-0.079c-1.228-1.412-2.564-2.713-4.009-3.901l-0.155-0.152
			c-1.137-1.435-2.451-2.687-3.941-3.753l-0.309-0.294c-0.984-1.485-2.257-2.669-3.776-3.592l-0.452-0.343
			c-1.586-2.978-5.743-1.86-7.437-4.668l0.157,0.19c-1.709-1.095-3.102-2.511-4.239-4.186l0.143,0.147
			c-1.672-1.126-3.044-2.562-4.281-4.137l0.13,0.131c-1.571-1.217-2.947-2.633-4.234-4.141l0.102,0.101
			c-1.496-1.252-2.827-2.676-4.232-4.024l0.011,0.011c-1.299-1.366-2.679-2.644-4.14-3.836l-0.19-0.175
			c-1.037-1.378-2.263-2.559-3.678-3.543c-1.014-0.566-2.101-0.86-3.262-0.879c-2.027-0.881-3.63-2.272-4.899-4.066l0.152,0.145
			c-1.65-1.153-3.034-2.578-4.259-4.166l0.174,0.154c-2.652-2.614-2.574-5.297-0.208-8.041l-0.03,0.042
			c2.43-2.177,1.638-6.07,4.32-8.111l-0.164,0.161c1.207-1.417,2.418-2.83,3.636-4.238c0.488-1.019,0.689-2.093,0.606-3.22
			c0.868-1.978,2.288-3.533,3.83-4.992l-0.018,0.031c2.441-2.164,1.639-6.069,4.343-8.093l-0.171,0.166
			c1.205-1.443,2.435-2.866,3.688-4.268c0.473-1.004,0.659-2.059,0.557-3.164c0.845-2.013,2.269-3.582,3.863-5.018l-0.036,0.06
			c2.39-2.205,1.607-6.099,4.327-8.13l-0.177,0.168c1.1-1.595,2.601-2.844,3.765-4.383l0.087-0.137
			c2.668-1.973,1.789-5.876,4.314-7.927l-0.099,0.104c1.249-1.305,2.428-2.672,3.545-4.092c0.508-1.08,0.742-2.217,0.703-3.41
			c0.971-1.856,2.367-3.378,3.808-4.865l0.015-0.024c2.528-2.092,1.692-6.013,4.362-8.027l-0.162,0.156
			c1.131-1.547,2.62-2.79,3.719-4.365l0.125-0.199c2.742-1.899,1.813-5.843,4.37-7.845l-0.108,0.143
			c1.394-1.549,2.953-1.739,4.666-0.589c0.789,1.711,1.919,3.349,1.54,5.417c2.13-1.524-0.162-3.06-0.036-4.628
			c0.209-2.588,1.145-5.089,0.87-7.725c-0.586-1.83-0.234-3.454,1.042-4.878l-0.006,0.006c1.297-1.202,2.47-2.514,3.519-3.937
			c0.528-1.082,0.788-2.226,0.781-3.431c0.978-1.865,2.369-3.399,3.868-4.847l-0.017,0.021c1.284-1.214,2.455-2.527,3.498-3.954
			c0.533-1.083,0.798-2.228,0.794-3.435c0.981-1.869,2.372-3.409,3.898-4.839l-0.037,0.04c1.285-1.244,2.465-2.582,3.554-4
			c0.523-1.056,0.774-2.174,0.751-3.353c0.943-1.926,2.339-3.486,3.943-4.878l-0.078,0.085c1.309-1.343,2.525-2.766,3.649-4.268
			l0.209-0.317c2.859-1.758,1.842-5.802,4.519-7.666l-0.168,0.157c1.153-1.586,2.621-2.884,3.932-4.326l0.019-0.022
			c1.373-1.239,2.596-2.612,3.671-4.117l0.235-0.339c2.878-1.716,1.828-5.811,4.6-7.593l-0.19,0.166
			c1.124-1.679,2.551-3.061,4.163-4.262l-0.14,0.138c1.181-1.607,2.61-2.974,4.12-4.262l-0.1,0.102
			c1.248-1.497,2.673-2.827,4.017-4.233l-0.005,0.006c1.363-1.288,2.626-2.667,3.789-4.139l0.153-0.219
			c2.763-1.853,1.789-5.884,4.52-7.755l-0.18,0.167c1.194-1.458,2.422-2.888,3.683-4.289c0.462-1.108,0.637-2.258,0.526-3.452
			c2.977-4.666,1.422-9.874,1.772-14.857c-2.003-14.864,5.028-27.931,8.271-41.746c2.885-3.04,6.581-2.759,9.021-0.35
			c18.394,18.162,42.002,29.461,60.942,47.025c12.958,12.017,8.161,25.45,3.906,39.756c11.562-1.41,17.013-7.771,21.486-14.267
			c7.186-10.439,14.496-11.187,25.807-5.702c35.84,17.382,64.673,43.635,92.26,71.337c7.429,7.459,11.746,12.717,19.958,1.91
			c3.412-4.491,8.924-6.558,14.602-3.784c6.65,3.249,7.051,9.751,6.233,15.844c-1.443,10.75-3.383,21.42-2.729,32.36
			c-1.559,12.872-2.315,25.895-7.65,37.999c-1.686,1.966-3.623,2.25-5.806,0.864l-0.094-0.096c-1.161-1.415-2.494-2.641-4.027-3.645
			l-0.383-0.269c-1.672-2.923-5.777-1.853-7.553-4.606l0.168,0.189c-1.661-1.128-3.019-2.573-4.297-4.101l0.111,0.11
			c-1.502-1.224-2.807-2.662-4.274-3.922l-0.059-0.055c-1.176-1.339-2.461-2.562-3.876-3.647c-0.987-0.542-2.044-0.796-3.17-0.763
			c-2.068-0.838-3.676-2.242-4.967-4.035l0.151,0.144c-1.628-1.14-2.956-2.601-4.316-4.028l0.061,0.058
			c-1.327-1.331-2.74-2.563-4.228-3.71l-0.271-0.18c-1.811-2.817-5.818-1.832-7.733-4.468l0.146,0.083
			c-1.508-1.237-3.013-1.235-4.515,0.008l0.125-0.057c-1.208,1.553-2.648,2.886-4.035,4.27l0.036-0.04
			c-1.297,1.268-2.514,2.609-3.651,4.021c-0.523,0.998-0.759,2.059-0.709,3.184c-0.852,2.047-2.262,3.644-4.007,4.97l0.135-0.143
			c-1.158,1.566-2.63,2.85-3.879,4.334l-0.059,0.067c-1.326,1.122-2.487,2.396-3.481,3.82c-0.55,1.083-0.833,2.233-0.847,3.448
			c-0.992,1.878-2.379,3.431-3.968,4.817l0.079-0.086c-1.314,1.359-2.562,2.777-3.734,4.261l-0.155,0.235
			c-2.789,1.835-1.81,5.861-4.508,7.748l0.175-0.164c-1.14,1.602-2.615,2.899-3.932,4.34l-0.01,0.011
			C594.111,798.319,592.939,799.622,591.901,801.045z"/>
		<path style="fill:#022b3a;" d="M693.15,744.195c-0.486-10.883,0.523-21.508,3.639-32.073c1.243-4.217,1.475-10.052-4.736-11.74
			c-4.514-1.227-7.704,1.697-9.984,5.312c-1.804,2.862-3.122,6.033-4.965,8.865c-3.959,6.079-9.369,6.878-12.348,0.196
			c-6.189-13.88-17.54-22.014-29.489-29.858c-1.695-1.112-4.006-1.933-4.899-3.524c-16.809-29.966-51.539-34.496-76.069-56.701
			c-6.346,15.203-17.396,22.852-27.817,31.118c-2.86,2.269-6.271,3.222-9.391,1.183c-3.164-2.067-3.135-5.728-2.659-9.164
			c0.183-1.325,0.657-2.613,1.046-3.905c6.985-23.177,6.426-22.55-10.615-37.792c-10.703-9.573-21.209-18.908-34.623-24.321
			c-10.04-4.052-10.921-17.355-21.412-20.844c-22.744-18.554-23.438-46.057-28.239-71.578c-1.634-8.689,5.198-13.525,14.164-13.137
			c18.243,0.788,28.687-8.935,35.558-24.755c12.673-29.184,41.089-38.352,66.48-51.274c2.227-0.152,4.079,0.607,5.56,2.273
			l-0.148-0.195c1.625,1.133,2.939,2.601,4.327,3.991l-0.033-0.031c1.298,1.345,2.701,2.573,4.192,3.701l0.287,0.196
			c1.773,2.832,5.847,1.811,7.659,4.577l-0.172-0.193c1.668,1.114,3.011,2.571,4.317,4.069l-0.097-0.094
			c1.47,1.233,2.748,2.677,4.261,3.864l0.122,0.109c1.094,1.351,2.349,2.53,3.765,3.54c1.003,0.573,2.083,0.863,3.238,0.872
			c2.043,0.861,3.644,2.263,4.945,4.034l-0.149-0.063c1.534,1.169,3.081,1.246,4.641,0.051l-0.15,0.052
			c1.147-1.67,2.542-3.09,4.248-4.194l-0.146,0.144c1.108-1.704,2.517-3.108,4.213-4.224l-0.149,0.147
			c1.117-1.696,2.526-3.101,4.215-4.227l-0.15,0.148c1.125-1.688,2.539-3.089,4.207-4.237l-0.152,0.149
			c1.146-1.666,2.56-3.066,4.204-4.238l-0.15,0.148c1.164-1.641,2.586-3.029,4.175-4.252l-0.134,0.134
			c1.204-1.585,2.627-2.955,4.132-4.247l-0.1,0.101c1.257-1.494,2.676-2.832,4.041-4.222l-0.019,0.02
			c1.358-1.322,2.654-2.704,3.886-4.144l0.131-0.139c1.433-1.129,2.653-2.453,3.659-3.973l0.365-0.428
			c2.057-1.198,3.889-0.918,5.498,0.822c1.43,2.323,2.747,4.887,2.481,7.579c-3.933,39.782,9.474,75.202,26.235,110.195
			c7.412,15.474,18.678,27.675,27.882,41.46c-8.442-12.035-7.558-25.685-4.645-38.582c2.338-10.35,6.022-20.534,9.028-30.806
			c4.153-14.19,16.625-16.072,29.805-13.802c6.97,0.974,12.429,4.464,17.047,9.728c16.341,18.627,35.071,35.047,50.488,54.543
			c0.636,1.95,0.572,3.883-0.175,5.793c-0.561,1.098-0.86,2.263-0.896,3.496c-1.025,1.841-2.403,3.388-3.972,4.776l0.071-0.079
			c-1.272,1.308-2.487,2.667-3.636,4.083c-0.539,0.973-0.777,2.013-0.717,3.124c-0.813,2.087-2.233,3.692-3.99,5.03l0.136-0.145
			c-1.143,1.545-2.629,2.796-3.748,4.362l-0.105,0.175c-2.904,2.612-2.363,5.31-0.199,8.048l-0.046-0.077
			c1.466,1.3,2.845,2.688,4.158,4.141l-0.072-0.073c1.448,1.3,2.802,2.697,4.168,4.08l-0.032-0.033
			c1.373,1.339,2.701,2.727,4.134,4.005l0.038,0.038c1.28,1.388,2.628,2.706,4.055,3.943l0.111,0.108
			c1.196,1.413,2.518,2.694,3.988,3.822l0.229,0.222c1.075,1.457,2.362,2.694,3.861,3.709l0.36,0.344
			c0.953,1.481,2.179,2.676,3.722,3.536l0.555,0.524c0.726,1.446,1.814,2.543,3.216,3.336c1.013,0.651,2.119,1.024,3.318,1.122
			c2.034,0.88,3.645,2.262,4.87,4.102l-0.154-0.146c1.7,1.11,3.095,2.528,4.246,4.193l-0.148-0.15
			c1.662,1.14,3.043,2.569,4.268,4.158l-0.133-0.134c1.581,1.199,2.94,2.628,4.257,4.101l-0.082-0.081
			c1.458,1.279,2.792,2.687,4.196,4.022l0.007,0.003c1.306,1.373,2.677,2.676,4.105,3.92l0.12,0.113
			c1.147,1.42,2.488,2.626,3.996,3.651l0.445,0.367c0.971,1.788,1.088,3.63,0.368,5.53c-18.36,22.238-44.297,28.357-70.751,29.683
			c-14.018,0.703-28.269,1.904-43.252-0.278c-20.946-3.05-27.127-12.962-29.371-26.333c2.218,5.203,4.109,14.306,6.518,23.263
			c0.101,6.915-5.212,9.538-9.975,12.579c-2.608,1.155-5.063,4.588-8.06,0.58c-0.337,0.258-0.135,1.463,1.024,1.717
			c3.529,0.773,6.104-1.586,8.777-3.458c5.638-1.262,9.291,1.561,12.259,5.859c6.978,13.544,8.679,28.118,7.281,42.956
			C709.97,733.049,707.332,743.557,693.15,744.195z"/>
		<path style="fill:#022b3a;" d="M787.403,532.677c-20.466-14.918-36.095-34.74-53.188-53.03c-3.769-4.033-6.568-8.194-12.561-8.28
			c-15.294-9.124-27.479-21.977-40.558-33.764c-13.206-13.632-33.023-21.072-39.025-41.477c-2.352-4.878-4.685-9.772-6.673-14.825
			c-0.217-0.879-0.4-1.766-0.597-2.652c-0.292-1.865,0.163-3.533,1.352-5l-0.006,0.005c1.394-1.346,2.737-2.743,4.171-4.046
			l-0.068,0.07c1.275-1.421,2.702-2.701,3.874-4.217l0.118-0.129c1.361-1.105,2.563-2.363,3.607-3.772
			c0.554-1.003,0.824-2.077,0.809-3.223c0.862-2.044,2.26-3.647,4.048-4.931l-0.145,0.151c1.144-1.631,2.598-2.971,4.056-4.306
			l-0.075,0.078c1.263-1.431,2.697-2.706,3.856-4.231l0.09-0.13c2.668-1.934,1.723-5.964,4.534-7.814l-0.191,0.161
			c1.093-1.702,2.532-3.071,4.13-4.286l-0.137,0.135c1.167-1.581,2.626-2.893,3.973-4.309l-0.005,0.006
			c1.363-1.262,2.581-2.653,3.672-4.155l0.223-0.328c2.872-1.734,1.837-5.808,4.566-7.629l-0.183,0.166
			c1.132-1.636,2.594-2.964,4.025-4.32l-0.059,0.063c1.327-1.34,2.578-2.748,3.752-4.225l0.155-0.23
			c2.776-1.837,1.79-5.88,4.538-7.734l-0.187,0.168c1.123-1.65,2.585-2.983,4.042-4.32l-0.074,0.078
			c1.252-1.427,2.697-2.681,3.798-4.242l0.122-0.178c2.722-1.886,1.759-5.923,4.538-7.776l-0.191,0.167
			c1.106-1.675,2.561-3.02,4.068-4.317l-0.099,0.101c1.222-1.476,2.674-2.745,3.839-4.273l0.088-0.129
			c2.665-1.94,1.725-5.962,4.523-7.826l-0.191,0.165c1.1-1.691,2.544-3.052,4.109-4.298l-0.124,0.125
			c1.19-1.545,2.643-2.848,3.937-4.297l0.031-0.033c1.325-1.199,2.543-2.497,3.639-3.91c0.536-0.999,0.786-2.065,0.751-3.198
			c0.854-2.049,2.256-3.651,4.033-4.947l-0.141,0.148c1.152-1.618,2.608-2.95,4.04-4.304l-0.06,0.062
			c1.33-1.35,2.594-2.758,3.802-4.218l0.179-0.198c1.37-1.035,2.555-2.247,3.527-3.664c2.187-2.873,5.251-3.938,8.697-4.213
			c2.098,2.537,5.814,1.586,8.085,3.751c1.096,0.445,2.234,0.622,3.414,0.532c1.768,0.941,3.292,2.207,4.751,3.561
			c1.056,0.452,2.157,0.632,3.303,0.543c1.887,0.908,3.397,2.322,4.947,3.683l0.109,0.065c2.023,2.619,5.857,1.787,7.991,4.193
			l-0.033-0.022c2.178,2.43,6.049,1.65,8.122,4.279l-0.145-0.143c1.371,1.215,2.765,2.403,4.181,3.565
			c1.073,0.484,2.196,0.701,3.372,0.652c1.867,0.947,3.383,2.349,4.894,3.76l0.057,0.036c2.064,2.563,5.969,1.72,8.006,4.331
			l-0.137-0.135c1.364,1.224,2.756,2.417,4.17,3.583c1.057,0.489,2.167,0.708,3.331,0.655c1.9,0.922,3.427,2.33,4.924,3.778
			l0.033,0.021c2.089,2.53,6,1.696,8.025,4.346l-0.15-0.151c1.403,1.218,2.808,2.434,4.216,3.647
			c0.998,0.496,2.052,0.706,3.164,0.63c2.025,0.829,3.594,2.255,5.033,3.852l-0.061-0.053c1.248,1.258,2.586,2.411,4.015,3.458
			c1.11,0.522,2.277,0.785,3.503,0.788c1.798,1.007,3.3,2.393,4.81,3.769l0.074,0.047c2.036,2.588,5.972,1.721,7.967,4.383
			l-0.152-0.157c1.54,1.129,2.772,2.62,4.362,3.689l0.233,0.145c1.872,2.767,5.808,1.828,7.814,4.353l-0.099-0.095
			c1.303,1.244,2.664,2.42,4.085,3.528c1.062,0.514,2.182,0.76,3.361,0.739c1.905,0.936,3.444,2.337,4.9,3.844l-0.016-0.014
			c1.184,1.275,2.493,2.407,3.925,3.396c1.145,0.538,2.35,0.819,3.615,0.843c1.748,1.033,3.193,2.446,4.734,3.74l0.125,0.079
			c1.98,2.649,5.923,1.757,7.915,4.385l-0.143-0.143c1.392,1.226,2.792,2.443,4.2,3.649c1.023,0.483,2.099,0.687,3.227,0.614
			c1.979,0.874,3.538,2.289,4.977,3.858l-0.049-0.026c2.227,2.255,6.868,3.294,4.076,8.082l0.054-0.051
			c-1.319,1.372-2.729,2.658-3.899,4.169l-0.115,0.118c-1.426,1.186-2.711,2.51-3.854,3.972l-0.198,0.205
			c-1.453,1.091-2.692,2.386-3.717,3.886l-0.241,0.326c-2.874,1.709-1.817,5.825-4.635,7.569l0.193-0.157
			c-1.09,1.713-2.511,3.102-4.176,4.249l0.149-0.145c-1.135,1.663-2.571,3.035-4.138,4.28l0.127-0.127
			c-1.204,1.554-2.647,2.883-4.022,4.276l0.029-0.028c-1.353,1.317-2.632,2.701-3.824,4.166l-0.175,0.193
			c-1.371,1.013-2.527,2.231-3.465,3.653c-0.574,1.055-0.881,2.183-0.923,3.383c-0.949,1.947-2.335,3.529-4.044,4.842l0.13-0.136
			c-1.178,1.558-2.639,2.858-3.93,4.312l-0.029,0.031c-1.328,1.18-2.521,2.485-3.594,3.9c-0.543,1.012-0.804,2.091-0.785,3.239
			c-0.876,2.021-2.28,3.614-4.007,4.944l0.13-0.138c-1.167,1.551-2.639,2.831-3.868,4.327l-0.05,0.077
			c-2.608,2.004-1.708,5.996-4.48,7.908l0.191-0.17c-1.099,1.662-2.577,2.977-3.992,4.349l0.054-0.059
			c-1.282,1.279-2.489,2.627-3.618,4.044c-0.521,1.02-0.758,2.103-0.711,3.247c-0.884,1.993-2.295,3.568-3.939,4.958l0.094-0.104
			c-1.261,1.348-2.487,2.727-3.678,4.138c-0.507,0.993-0.721,2.046-0.644,3.158c-0.841,2.047-2.258,3.638-3.961,5.003l0.117-0.126
			c-1.278,1.403-2.505,2.85-3.688,4.333l-0.159,0.25c-2.802,1.836-1.837,5.816-4.426,7.773l0.134-0.134
			c-1.282,1.398-2.512,2.841-3.69,4.327l-0.161,0.252c-2.802,1.839-1.844,5.801-4.393,7.782l0.114-0.118
			c-1.25,1.343-2.462,2.72-3.63,4.136c-0.509,1.018-0.731,2.096-0.664,3.233c-0.879,1.989-2.294,3.558-3.904,4.974l0.074-0.083
			c-1.265,1.292-2.451,2.653-3.57,4.072c-0.508,1.058-0.746,2.174-0.711,3.347c-0.943,1.915-2.344,3.465-3.896,4.894l0.049-0.056
			c-1.272,1.249-2.443,2.586-3.513,4.012c-0.523,1.083-0.777,2.226-0.761,3.429c-0.982,1.862-2.376,3.394-3.867,4.85l0.017-0.02
			c-1.29,1.19-2.434,2.509-3.455,3.936c-0.54,1.102-0.815,2.267-0.825,3.494c-1.013,1.827-2.397,3.355-3.877,4.805l0.014-0.016
			c-1.289,1.197-2.447,2.509-3.474,3.937c-0.539,1.091-0.81,2.245-0.813,3.463c-1,1.853-2.388,3.391-3.91,4.82l0.038-0.053
			C789.797,533.633,788.656,533.79,787.403,532.677z"/>
		<path style="fill:#022b3a;" d="M957.612,731.218c1.052,0.609,2.185,0.949,3.398,1.02c1.957,0.94,3.541,2.325,4.843,4.049
			l-0.137-0.131c1.579,1.176,2.902,2.628,4.293,4.006l-0.026-0.026c1.371,1.364,2.742,2.729,4.095,4.112l-0.042-0.035
			c0.806,0.867,1.106,1.76,0.904,2.682c-0.206,0.934-0.434,1.402-0.683,1.402l-0.08,0.116c-2.649,1.995-1.787,5.882-4.285,7.958
			l0.088-0.095c-1.252,1.285-2.426,2.636-3.511,4.064c-0.52,1.073-0.771,2.206-0.753,3.397c-0.966,1.885-2.363,3.426-3.886,4.867
			l0.035-0.04c-1.278,1.224-2.439,2.55-3.484,3.978c-0.532,1.085-0.798,2.231-0.799,3.44c-0.988,1.866-2.379,3.407-3.91,4.834
			l0.044-0.05c-1.287,1.266-2.491,2.608-3.61,4.025c-0.528,1.018-0.769,2.099-0.726,3.244c-0.883,2.002-2.292,3.582-3.966,4.951
			l0.11-0.117c-1.199,1.487-2.669,2.736-3.776,4.304l-0.116,0.175c-2.725,1.893-1.771,5.917-4.514,7.798l0.188-0.171
			c-1.122,1.645-2.591,2.969-4.017,4.333l0.06-0.063c-1.33,1.33-2.57,2.741-3.719,4.23l-0.175,0.26
			c-2.811,1.798-1.806,5.861-4.563,7.69l0.191-0.17c-1.121,1.661-2.578,3.005-4.068,4.318l0.095-0.097
			c-1.244,1.463-2.686,2.747-3.878,4.256l-0.07,0.102c-2.639,1.96-1.705,5.987-4.533,7.837l0.193-0.159
			c-1.085,1.714-2.518,3.09-4.148,4.276l0.148-0.145c-1.156,1.622-2.605,2.967-4.068,4.299l0.079-0.081
			c-1.265,1.438-2.697,2.724-3.887,4.232l-0.102,0.109c-1.414,1.154-2.626,2.491-3.637,4.009l-0.278,0.389
			c-2.931,1.657-1.853,5.777-4.628,7.53l0.193-0.168c-1.119,1.683-2.551,3.061-4.152,4.276l0.139-0.138
			c-1.183,1.593-2.625,2.939-4.07,4.281l0.07-0.072c-1.288,1.425-2.706,2.729-3.937,4.206l-0.069,0.073
			c-1.405,1.204-2.654,2.551-3.747,4.043l-0.2,0.273c-2.825,1.762-1.793,5.862-4.619,7.624l0.192-0.155
			c-1.087,1.716-2.504,3.107-4.181,4.243l0.15-0.145c-1.128,1.676-2.557,3.058-4.164,4.267l0.141-0.138
			c-1.19,1.601-2.618,2.97-4.128,4.26l0.104-0.105c-1.251,1.497-2.676,2.829-4.023,4.235l0.011-0.012
			c-1.367,1.309-2.664,2.686-3.888,4.13l-0.135,0.141c-1.434,1.142-2.669,2.471-3.733,3.961l-0.318,0.323
			c-1.662,1.049-3.052,2.461-4.702,3.526l-1.262-0.275l-1.286,0.134c-2.021-0.885-3.621-2.28-4.906-4.056l0.152,0.145
			c-1.627-1.159-2.985-2.601-4.286-4.101l0.1,0.099c-1.482-1.249-2.795-2.679-4.245-3.962l-0.036-0.035
			c-1.231-1.39-2.601-2.626-4.092-3.731l-0.283-0.2c-1.76-2.833-5.852-1.802-7.629-4.607l0.163,0.193
			c-1.704-1.1-3.089-2.526-4.262-4.169l0.145,0.148c-1.638-1.153-3.002-2.591-4.281-4.116l0.11,0.109
			c-1.507-1.229-2.82-2.667-4.26-3.969l-0.023-0.022c-1.249-1.383-2.624-2.628-4.106-3.755l-0.256-0.182
			c-1.787-2.806-5.874-1.786-7.654-4.604l0.159,0.192c-1.71-1.091-3.093-2.518-4.264-4.161l0.145,0.149
			c-1.638-1.152-3.001-2.592-4.284-4.115l0.11,0.109c-1.506-1.234-2.826-2.668-4.253-3.987l-0.011-0.01
			c-1.268-1.371-2.636-2.632-4.121-3.765l-0.244-0.172c-1.801-2.794-5.882-1.782-7.67-4.595l0.16,0.192
			c-1.708-1.094-3.091-2.522-4.263-4.165l0.146,0.148c-1.639-1.152-3.001-2.591-4.284-4.113l0.109,0.107
			c-1.505-1.235-2.824-2.668-4.252-3.985l-0.012-0.013c-1.265-1.375-2.638-2.632-4.119-3.771l-0.24-0.168
			c-1.807-2.789-5.883-1.782-7.678-4.591l0.162,0.192c-1.706-1.096-3.087-2.524-4.266-4.16l0.143,0.147
			c-1.627-1.151-2.973-2.601-4.299-4.07l0.084,0.083c-1.447-1.272-2.755-2.691-4.226-3.937l-0.066-0.062
			c-1.198-1.394-2.544-2.623-4.06-3.663l-0.359-0.251c-1.689-2.903-5.797-1.84-7.565-4.614l0.168,0.192
			c-1.681-1.118-3.054-2.555-4.282-4.141l0.134,0.134c-1.577-1.19-2.912-2.635-4.28-4.046l0.062,0.047
			c-1.312-1.481-1.998-3.211-2.06-5.187c6.732-17.653,21.689-29.276,33.865-42.217c19.993-21.25,38.137-43.925,56.044-66.705
			c14.642-18.625,37.727-28.34,49.3-49.639c1.986-0.765,3.701-0.319,5.178,1.165l-0.126-0.164c1.565,1.207,2.916,2.638,4.256,4.079
			l-0.065-0.064c1.42,1.289,2.723,2.704,4.197,3.934l0.079,0.075c1.208,1.398,2.546,2.656,4.035,3.752l0.298,0.273
			c0.937,1.403,2.127,2.55,3.534,3.474c1.029,0.589,2.136,0.906,3.321,0.952c2.002,0.905,3.603,2.29,4.859,4.083l-0.152-0.145
			c1.654,1.138,3.017,2.577,4.285,4.117l-0.113-0.113c1.525,1.222,2.849,2.658,4.254,4.007l-0.006-0.008
			c1.293,1.362,2.673,2.629,4.14,3.802l0.223,0.205c1.013,1.374,2.213,2.555,3.632,3.509c1.011,0.583,2.1,0.89,3.267,0.92
			c2.034,0.874,3.639,2.265,4.9,4.069l-0.152-0.146c1.655,1.135,3.016,2.576,4.29,4.109l-0.111-0.11
			c1.514,1.222,2.826,2.66,4.264,3.964l0.026,0.025c1.251,1.374,2.613,2.625,4.103,3.735l0.302,0.273
			c0.928,1.393,2.102,2.535,3.52,3.427c1.061,0.593,2.199,0.916,3.413,0.97c1.938,0.959,3.52,2.34,4.813,4.064l-0.14-0.134
			c1.587,1.172,2.912,2.625,4.296,4.014l-0.034-0.033c1.316,1.346,2.709,2.607,4.179,3.783l0.231,0.208
			c0.989,1.377,2.192,2.53,3.61,3.459c1.051,0.581,2.175,0.894,3.375,0.939c1.956,0.934,3.534,2.324,4.862,4.019l-0.127-0.122
			c1.552,1.212,2.891,2.646,4.258,4.052l-0.046-0.045c1.316,1.335,2.714,2.576,4.207,3.71l0.303,0.264
			C955.029,729.213,956.185,730.355,957.612,731.218z"/>
		<path style="fill:#022b3a;" d="M318.644,516.598c-1.033-0.527-2.127-0.765-3.284-0.712c-1.95-0.899-3.501-2.313-4.962-3.842
			l0.025,0.015c-2.146-2.455-6.081-1.632-8.06-4.394l0.178,0.191c-1.636-1.082-2.905-2.583-4.391-3.837l-0.062-0.04
			c-2.043-2.58-5.987-1.716-7.974-4.398l0.165,0.168c-1.563-1.126-2.814-2.617-4.373-3.747l-0.166-0.105
			c-1.924-2.709-5.893-1.787-7.856-4.428l0.152,0.154c-1.531-1.141-2.758-2.641-4.358-3.701l-0.223-0.141
			c-1.855-2.774-5.856-1.812-7.78-4.467l0.154,0.159c-1.546-1.149-2.804-2.628-4.352-3.776l-0.151-0.097
			c-1.93-2.695-5.927-1.764-7.846-4.475l0.17,0.179c-1.607-1.124-2.891-2.608-4.357-3.891l-0.038-0.025
			c-2.049-2.554-6.04-1.668-7.942-4.483l0.175,0.201c-1.698-1.083-3.04-2.547-4.333-4.064l0.109,0.106
			c-1.485-1.211-2.748-2.672-4.291-3.819l-0.14-0.095c-1.911-2.699-6.331-1.777-7.663-5.31c-0.058-2.221-0.115-4.441-0.173-6.662
			c2.285-2.369,1.556-6.17,4.015-8.457l-0.029,0.046c2.427-2.173,1.623-6.089,4.363-8.094l-0.189,0.176
			c1.118-1.634,2.596-2.938,3.961-4.348l-0.017,0.019c1.352-1.275,2.569-2.667,3.653-4.176l0.231-0.337
			c2.884-1.718,1.838-5.809,4.592-7.607l-0.194,0.175c1.132-1.663,2.575-3.028,4.121-4.293l-0.118,0.119
			c1.213-1.528,2.656-2.843,3.979-4.27l0.009-0.01c1.375-1.276,2.643-2.653,3.816-4.117l0.143-0.201
			c3.582-3.41,5.018-8.4,8.659-11.766l-0.208,0.143c1.094-1.717,2.511-3.115,4.199-4.245l-0.154,0.151
			c1.125-1.686,2.548-3.078,4.188-4.258l-0.15,0.147c1.165-1.634,2.592-3.015,4.156-4.261l-0.127,0.126
			c1.227-1.558,2.642-2.93,4.134-4.229l-0.094,0.093c1.277-1.484,2.681-2.843,4.096-4.193l-0.052,0.052
			c1.323-1.403,2.713-2.741,4.028-4.154l0.012-0.015c1.386-1.302,2.752-2.621,3.978-4.078l0.074-0.074
			c1.405-1.249,2.726-2.58,3.948-4.009l0.113-0.113c1.419-1.205,2.724-2.523,3.895-3.973l0.163-0.168
			c1.441-1.144,2.715-2.45,3.824-3.918l0.233-0.235c1.469-1.076,2.717-2.367,3.776-3.845l0.287-0.293
			c1.474-1.033,2.725-2.284,3.721-3.787l0.344-0.345c1.487-0.991,2.733-2.222,3.701-3.73l0.368-0.367
			c1.505-0.954,2.711-2.203,3.658-3.708l0.409-0.418c1.501-0.923,2.717-2.127,3.602-3.657l0.466-0.465
			c1.527-0.868,2.699-2.088,3.566-3.609l0.505-0.508c1.524-0.847,2.704-2.035,3.542-3.564l0.53-0.528
			c1.522-0.842,2.722-2.006,3.547-3.544l0.394-0.484c3.008-1.553,1.875-5.726,4.683-7.406l-0.202,0.168
			c1.095-1.709,2.529-3.09,4.159-4.279l-0.202,0.177c6.575-4.098,13.345-2.517,20.125-0.697c4.004,0.179,8.008,0.359,12.013,0.538
			c6.288,4.439,14.093-0.257,20.51,3.408c3.993,0.232,7.987,0.466,11.98,0.698c2.434,2.2,6.339,1.43,8.486,4.209l-0.175-0.179
			c1.616,1.122,2.909,2.603,4.35,3.92l0.017,0.016c1.181,1.309,2.489,2.478,3.907,3.525c1.014,0.568,2.102,0.847,3.263,0.839
			c2.013,0.879,3.6,2.285,4.947,3.989l-0.127-0.119c1.514,1.167,2.754,2.649,4.328,3.747l0.192,0.126
			c1.88,2.734,5.912,1.769,7.777,4.527l-0.175-0.191c1.652,1.102,2.96,2.582,4.352,3.969l-0.031-0.029
			c1.197,1.267,2.514,2.395,3.95,3.383c1.064,0.566,2.199,0.872,3.404,0.918c1.937,0.966,3.523,2.344,4.802,4.083l-0.195-0.13
			c1.329,1.421,2.268,3.065,2.823,4.925c10.007,11,7.21,19.061-1.453,31.262c-16.873,23.764-34.544,46.291-56.398,65.569
			c-4.776,4.213-6.26,10.124-6.199,16.565c0.051,5.349,0.21,11.656-6.722,13.007c-6.898,1.345-8.672-4.904-11.745-9.154
			c-4.32,27.078-9.13,54.409-41.954,62.991c-2.932-0.174-6.011,0.192-8.253-2.362l0.17,0.174c-1.566-1.113-2.807-2.61-4.384-3.711
			l-0.196-0.122c-1.9-2.74-5.845-1.814-7.844-4.378l0.124,0.118C321.443,518.919,320.065,517.732,318.644,516.598z"/>
		<path style="fill:#022b3a;" d="M342.174,528.771c27.382-12.595,36.954-35.612,37.495-63.958c0.077-4.027-0.002-8.267,5.613-10.989
			c4.13,6.021,2.168,15.833,9.389,19.464c3.447-0.202,5.199-1.926,4.691-3.881c-4.583-17.619,7.073-26.645,17.815-37.343
			c13.922-13.863,31.776-25.036,36.501-46.354c0.939-4.238,4.604-6.381,8.219-8.452c9.989-5.72,13.431-12.771,4.444-22.47
			c-1.145-1.236-0.773-3.879-1.103-5.871c1.386-0.98,2.702-0.893,3.95,0.257l0.03,0.029c1.165,1.329,2.455,2.518,3.894,3.546
			c1.073,0.515,2.204,0.776,3.393,0.782c1.91,0.964,3.473,2.351,4.832,3.984l-0.102-0.095c1.47,1.215,2.724,2.673,4.278,3.795
			l0.169,0.113c1.907,2.706,5.92,1.759,7.807,4.5l-0.161-0.18c1.642,1.122,2.966,2.587,4.322,4.018l-0.063-0.059
			c1.311,1.283,2.667,2.517,4.076,3.692c1.002,0.494,2.061,0.712,3.177,0.655c2.045,0.85,3.641,2.254,4.95,4.011l-0.138-0.132
			c1.59,1.158,2.901,2.619,4.309,3.974l-0.01-0.01c1.238,1.308,2.568,2.514,3.977,3.633c1.028,0.504,2.115,0.744,3.26,0.719
			c2,0.893,3.587,2.288,4.897,4.023l-0.135-0.129c1.574,1.164,2.875,2.627,4.313,3.941l0.017,0.017
			c1.203,1.32,2.517,2.52,3.927,3.614c1,0.51,2.061,0.767,3.183,0.773c1.504,0.667,2.086,1.465,1.754,2.397
			c-0.356,0.998-0.751,1.497-1.191,1.497c-6.12-0.164-9.485,4.319-13.662,7.723c-6.773,5.518-13.272,13.032-21.135,15.222
			c-18.151,5.054-24.445,18.671-30.543,33.884c-6.66,16.615-19.47,23.428-38.026,21.725c-8.892-0.816-13.03,3.709-9.33,14.263
			c7.045,20.101,6.897,42.957,22.278,60.005c1.162,1.287,0.893,3.867,1.289,5.846c3.699,16.12-7.021,29.614-8.167,44.852
			c-1.728,1.704-2.985,1.498-3.698-0.912c0.102-1.131-0.07-2.219-0.515-3.263c-1.222-1.463-2.672-2.724-3.78-4.288l0.136,0.14
			c-1.616-1.197-3.04-2.581-4.169-4.255l0.137,0.139c-1.673-1.133-3.066-2.547-4.234-4.191l0.139,0.142
			c-1.637-1.147-2.992-2.59-4.289-4.093l0.1,0.097c-1.471-1.223-2.736-2.677-4.275-3.824l-0.143-0.095
			c-1.932-2.684-5.937-1.75-7.836-4.492l0.161,0.18c-1.638-1.119-2.953-2.589-4.333-3.989l0.045,0.042
			c-1.252-1.28-2.589-2.464-4.01-3.553c-1.067-0.502-2.19-0.751-3.37-0.746c-1.914-0.955-3.473-2.347-4.857-3.954l0.09,0.08
			c-1.269-1.24-2.622-2.38-4.057-3.422c-1.128-0.474-2.304-0.739-3.526-0.795c-1.145-0.957-1.536-1.926-1.178-2.909
			c0.36-0.989,0.726-1.485,1.099-1.483c3.005-2.804,3-6.757,3.865-10.378c-1.204,3.415-0.853,7.413-3.746,10.197
			c-1.435,1.515-3.022,1.7-4.763,0.559l0.081,0.092c-1.295-1.284-2.663-2.487-4.094-3.619c-1.036-0.49-2.128-0.719-3.273-0.683
			c-1.969-0.904-3.537-2.308-4.924-3.938l0.095,0.086c-1.33-1.256-2.699-2.467-4.116-3.625c-1.055-0.48-2.162-0.697-3.321-0.649
			c-1.917-0.93-3.463-2.333-4.909-3.863l0.037,0.033c-1.221-1.279-2.546-2.44-3.975-3.481c-1.128-0.504-2.308-0.76-3.543-0.769
			c-1.771-1.042-3.273-2.42-4.766-3.808l-0.061-0.031c-1.087-0.646-1.554-1.411-1.402-2.294
			C341.643,529.242,341.873,528.771,342.174,528.771z"/>
		<path style="fill:#022b3a;" d="M847.797,642.603c-7.235,13.193-11.94,26.938-29.526,32.914
			c-11.903,4.045-18.398,19.257-26.318,29.817c-24.318,32.421-52.686,61.098-79.563,91.16c-1.317,1.474-2.086,3.435-3.111,5.171
			c-1.373,0.832-2.697,0.722-3.98-0.205l-0.215-0.202c-0.989-1.378-2.196-2.526-3.62-3.447c-0.941-0.658-1.986-1-3.134-1.025
			c-2.137-0.785-3.767-2.202-5.046-4.056l0.175,0.165c-1.677-1.12-3.038-2.571-4.314-4.112l0.148,0.112
			c-1.062-0.705-1.474-1.479-1.234-2.322c0.25-0.877,0.532-1.316,0.85-1.316c-2.084-14.048,4.632-27.188,4.242-41.06
			c18.565-12.41,13.802-30.78,10.908-47.723c-0.98-5.74-2.553-11.482-2.765-17.429c-1.14-5.489-0.301-11.474-4.082-16.302
			c-5.402-12.235-10.641-24.494-5.3-38.519c1.003,9.805,8.573,17.014,9.541,26.682c0.753,7.52,6.35,8.493,11.845,7.505
			c8.339-1.5,16.052-2.629,21.809,5.503c1.33,1.879,4.001,2.275,5.465,1.075c12.872-10.554,28.457-2.406,42.613-6.384
			c15.536-4.366,30.604-8.063,42.851-19.324c2.878-2.646,7.11-3.818,10.72-5.668c0.919-0.094,1.839-0.189,2.759-0.282
			c0.965,0.72,2.048,1.13,3.248,1.229c2.081,0.844,3.706,2.237,4.933,4.108l-0.259-0.142c1.298,0.799,1.783,1.67,1.457,2.612
			C848.559,642.114,848.193,642.603,847.797,642.603z"/>
		<path style="fill:#022b3a;" d="M684.829,434.501c11.543,13.02,27.695,21.435,36.825,36.866c-2.693-0.154-5.385-0.295-8.077-0.463
			c-13.654-0.85-21.032,4.947-20.056,17.516c0.55,7.083-0.697,11.476-5.186,17.578c-7.474,10.156-3.236,23.345-2.251,35.218
			c0.429,5.165,4.211,9.989,1.741,16.485c-17.787-18.597-33.797-37.388-39.684-63.246c-1.862-8.184-7.062-16.085-12.304-22.91
			c-7.157-9.318-8.167-19.359-7.979-30.405c0.296-17.422-0.267-34.857-0.466-52.287c-0.087-0.934-0.174-1.869-0.262-2.805
			c0.697-0.987,1.083-2.084,1.157-3.29c0.819-2.036,2.367-3.509,3.874-5.014l-0.059,0.076c0.868-1.289,2.002-1.595,3.401-0.918
			c0.412,0.577,0.817,1.16,1.212,1.748c2.226,7.311,4.491,14.61,7.404,21.683C649.032,422.035,668.901,425.922,684.829,434.501z"/>
		<path style="fill:#022b3a;" d="M367.513,719.812c-0.993,8.359,7.518,16.892-0.778,27.081c-5.652-6.734-2.402-13.638-3.724-19.487
			c-0.893-0.726-1.217-1.483-0.973-2.268c0.249-0.8,0.513-1.2,0.794-1.2c0.641-0.893,0.923-1.889,0.845-2.986
			C364.431,718.808,365.685,718.344,367.513,719.812z"/>
		<path style="fill:#022b3a;" d="M538.474,870.526c-0.067,1.303-0.111,2.607-0.133,3.911c-1.312,1.396-2.624,2.79-3.936,4.186
			c-2.909,1.671-4.168,4.397-4.81,7.516c-1.228,1.456-2.451,2.914-3.676,4.37c-1.275,1.439-2.547,2.88-3.82,4.32
			c-1.328,1.384-2.656,2.768-3.984,4.152c-2.944,1.615-4.197,4.343-4.904,7.432c-1.256,1.393-2.505,2.791-3.759,4.185
			c-1.225,0.2-2.452,0.367-3.686,0.494c-7.192-8.964-7.91-19.528-8.175-30.467c-0.55-22.675,2.244-45.437-0.012-69.199
			C511.211,831.127,524.843,850.826,538.474,870.526z"/>
		<path style="fill:#022b3a;" d="M697.212,662.742c11.556,2.881,9.661,9.13,4.082,16.302c-3.965-1.691-7.618-4.316-12.225-4.079
			C691.783,670.89,694.497,666.816,697.212,662.742z"/>
		<path style="fill:#022b3a;" d="M687.972,676.495c-1.921,1.892-4.165,2.638-6.744,1.656c-0.47-0.18-0.691-1.012-1.026-1.544
			c2.326-0.545,4.653-1.094,6.981-1.635C689.432,674.45,689.697,674.962,687.972,676.495z"/>
		<path style="fill:#022b3a;" d="M684.829,434.501c-2.495,0.78-5.758,2.978-7.36,2.109c-10.567-5.722-20.957-11.831-31.034-18.382
			c-5.555-3.612-6.766-9.707-6.223-16.092c3.081-2.068,0.771-6.997,4.599-8.668c6.811,14.472,17.19,25.509,31.561,32.66
			C680.141,428.005,683.029,430.681,684.829,434.501z"/>
		<path style="fill:#022b3a;" d="M644.811,393.469c-0.63,3.369-0.935,6.91-4.599,8.668c-1.405-7.795-6.165-15.09-3.498-23.488
			C641.814,382.279,643.703,387.661,644.811,393.469z"/>
		<path style="fill:#022b3a;" d="M383.654,556.903c0-6.511,0-13.021,0-20.356c11.029,11.812,11.021,12.009-0.002,20.356
			L383.654,556.903z"/>
	</g>
</g>
</svg>
